<mxfile host="app.diagrams.net" modified="2021-02-01T07:30:15.710Z" agent="5.0 (Windows)" etag="q5nnOpa9lbYF3Nc7TMva" version="14.2.9" type="github">
  <diagram id="5zCdjWw3TfICZzwGT9ux" name="Page-1">
    <mxGraphModel dx="1038" dy="1374" grid="1" gridSize="10" guides="1" tooltips="1" connect="1" arrows="1" fold="1" page="1" pageScale="1" pageWidth="1169" pageHeight="827" math="0" shadow="0">
      <root>
        <mxCell id="0" />
        <mxCell id="1" parent="0" />
        <mxCell id="VUJQqh5qZJxquNSaiEC0-1" value="Tree seedlings production" style="swimlane;" parent="1" vertex="1">
          <mxGeometry x="19" y="-10" width="1150" height="810" as="geometry" />
        </mxCell>
        <mxCell id="VUJQqh5qZJxquNSaiEC0-2" value="Start" style="rounded=1;whiteSpace=wrap;html=1;" parent="VUJQqh5qZJxquNSaiEC0-1" vertex="1">
          <mxGeometry x="60" y="34" width="100" height="60" as="geometry" />
        </mxCell>
        <mxCell id="VUJQqh5qZJxquNSaiEC0-5" value="SDDRD sends notification for setting seedling production targets and needs by August" style="rounded=0;whiteSpace=wrap;html=1;" parent="VUJQqh5qZJxquNSaiEC0-1" vertex="1">
          <mxGeometry x="35" y="140" width="150" height="70" as="geometry" />
        </mxCell>
        <mxCell id="VUJQqh5qZJxquNSaiEC0-4" value="" style="edgeStyle=orthogonalEdgeStyle;rounded=0;orthogonalLoop=1;jettySize=auto;html=1;" parent="VUJQqh5qZJxquNSaiEC0-1" source="VUJQqh5qZJxquNSaiEC0-2" target="VUJQqh5qZJxquNSaiEC0-5" edge="1">
          <mxGeometry relative="1" as="geometry">
            <mxPoint x="110" y="214" as="targetPoint" />
          </mxGeometry>
        </mxCell>
        <mxCell id="VUJQqh5qZJxquNSaiEC0-8" value="RD/DRD submit the seedling production targets, needs, work plan and budget to the Pre-Consultative by June and Consultative meeting for endorsement and adoption by July" style="whiteSpace=wrap;html=1;rounded=0;" parent="VUJQqh5qZJxquNSaiEC0-1" vertex="1">
          <mxGeometry x="15" y="404" width="190" height="85" as="geometry" />
        </mxCell>
        <mxCell id="VUJQqh5qZJxquNSaiEC0-12" value="SDDRD submits the adopted seedling production targets, needs and budget to Regional Directors with copy to Enterprise Manager" style="whiteSpace=wrap;html=1;rounded=0;" parent="VUJQqh5qZJxquNSaiEC0-1" vertex="1">
          <mxGeometry x="15" y="690" width="190" height="80" as="geometry" />
        </mxCell>
        <mxCell id="VUJQqh5qZJxquNSaiEC0-6" value="SDDRD convene a meeting to set seedling production targets, priority needs, work plan and budget by early in reference to annual production report end of October" style="rounded=0;whiteSpace=wrap;html=1;" parent="VUJQqh5qZJxquNSaiEC0-1" vertex="1">
          <mxGeometry x="10" y="260" width="200" height="90" as="geometry" />
        </mxCell>
        <mxCell id="VUJQqh5qZJxquNSaiEC0-7" value="" style="edgeStyle=orthogonalEdgeStyle;rounded=0;orthogonalLoop=1;jettySize=auto;html=1;" parent="VUJQqh5qZJxquNSaiEC0-1" source="VUJQqh5qZJxquNSaiEC0-5" target="VUJQqh5qZJxquNSaiEC0-6" edge="1">
          <mxGeometry relative="1" as="geometry" />
        </mxCell>
        <mxCell id="VUJQqh5qZJxquNSaiEC0-9" value="" style="edgeStyle=orthogonalEdgeStyle;rounded=0;orthogonalLoop=1;jettySize=auto;html=1;" parent="VUJQqh5qZJxquNSaiEC0-1" source="VUJQqh5qZJxquNSaiEC0-6" target="VUJQqh5qZJxquNSaiEC0-8" edge="1">
          <mxGeometry relative="1" as="geometry" />
        </mxCell>
        <mxCell id="VUJQqh5qZJxquNSaiEC0-20" value="Scientist in Charge of tree nurseries, Foresters, Seedling Production Officers, RD, DRD, SDDR&amp;amp;D signs performance contract" style="whiteSpace=wrap;html=1;rounded=0;" parent="VUJQqh5qZJxquNSaiEC0-1" vertex="1">
          <mxGeometry x="315" y="420" width="170" height="85" as="geometry" />
        </mxCell>
        <mxCell id="VUJQqh5qZJxquNSaiEC0-22" value="SDDRD transmits approved seedling production targets and needs to RDs and with copy to Enterprise Manager for implementation by August" style="whiteSpace=wrap;html=1;rounded=0;" parent="VUJQqh5qZJxquNSaiEC0-1" vertex="1">
          <mxGeometry x="305" y="260" width="190" height="84" as="geometry" />
        </mxCell>
        <mxCell id="VUJQqh5qZJxquNSaiEC0-24" value="Scientist in Charge of tree nurseries, Forester, Seedling Production Officers prepares quarterly work plans and budgets and submit to RD for approval " style="whiteSpace=wrap;html=1;rounded=0;" parent="VUJQqh5qZJxquNSaiEC0-1" vertex="1">
          <mxGeometry x="311.25" y="110" width="177.5" height="94" as="geometry" />
        </mxCell>
        <mxCell id="VUJQqh5qZJxquNSaiEC0-25" value="" style="edgeStyle=orthogonalEdgeStyle;rounded=0;orthogonalLoop=1;jettySize=auto;html=1;exitX=0.5;exitY=0;exitDx=0;exitDy=0;" parent="VUJQqh5qZJxquNSaiEC0-1" source="VUJQqh5qZJxquNSaiEC0-22" target="VUJQqh5qZJxquNSaiEC0-24" edge="1">
          <mxGeometry relative="1" as="geometry" />
        </mxCell>
        <mxCell id="VUJQqh5qZJxquNSaiEC0-26" value="SDDRD provides feedback from BoD to RD by July/August" style="whiteSpace=wrap;html=1;rounded=0;" parent="VUJQqh5qZJxquNSaiEC0-1" vertex="1">
          <mxGeometry x="340" y="583" width="120" height="60" as="geometry" />
        </mxCell>
        <mxCell id="VUJQqh5qZJxquNSaiEC0-29" value="" style="edgeStyle=orthogonalEdgeStyle;rounded=0;orthogonalLoop=1;jettySize=auto;html=1;entryX=0.5;entryY=1;entryDx=0;entryDy=0;" parent="VUJQqh5qZJxquNSaiEC0-1" source="VUJQqh5qZJxquNSaiEC0-26" target="VUJQqh5qZJxquNSaiEC0-20" edge="1">
          <mxGeometry relative="1" as="geometry">
            <mxPoint x="740" y="309" as="targetPoint" />
          </mxGeometry>
        </mxCell>
        <mxCell id="VUJQqh5qZJxquNSaiEC0-38" value="Scientist in Charge of tree nurseries, Forester, Seedling Production Officers receives and registers seeds for seedling production" style="whiteSpace=wrap;html=1;rounded=0;" parent="VUJQqh5qZJxquNSaiEC0-1" vertex="1">
          <mxGeometry x="584.75" y="419" width="210" height="70" as="geometry" />
        </mxCell>
        <mxCell id="VUJQqh5qZJxquNSaiEC0-39" value="" style="edgeStyle=orthogonalEdgeStyle;rounded=0;orthogonalLoop=1;jettySize=auto;html=1;exitX=0.5;exitY=1;exitDx=0;exitDy=0;" parent="VUJQqh5qZJxquNSaiEC0-1" source="haQr1E7QjzLYRrLq0wVw-17" target="VUJQqh5qZJxquNSaiEC0-38" edge="1">
          <mxGeometry relative="1" as="geometry">
            <mxPoint x="740" y="755" as="sourcePoint" />
          </mxGeometry>
        </mxCell>
        <mxCell id="VUJQqh5qZJxquNSaiEC0-40" value="RD/Accountant initiate payment of seeds supplied" style="whiteSpace=wrap;html=1;rounded=0;" parent="VUJQqh5qZJxquNSaiEC0-1" vertex="1">
          <mxGeometry x="629.75" y="570" width="120" height="60" as="geometry" />
        </mxCell>
        <mxCell id="VUJQqh5qZJxquNSaiEC0-41" value="" style="edgeStyle=orthogonalEdgeStyle;rounded=0;orthogonalLoop=1;jettySize=auto;html=1;" parent="VUJQqh5qZJxquNSaiEC0-1" source="VUJQqh5qZJxquNSaiEC0-38" target="VUJQqh5qZJxquNSaiEC0-40" edge="1">
          <mxGeometry relative="1" as="geometry" />
        </mxCell>
        <mxCell id="VUJQqh5qZJxquNSaiEC0-13" value="" style="edgeStyle=orthogonalEdgeStyle;rounded=0;orthogonalLoop=1;jettySize=auto;html=1;" parent="VUJQqh5qZJxquNSaiEC0-1" target="VUJQqh5qZJxquNSaiEC0-12" edge="1">
          <mxGeometry relative="1" as="geometry">
            <mxPoint x="110" y="607.5" as="sourcePoint" />
          </mxGeometry>
        </mxCell>
        <mxCell id="VUJQqh5qZJxquNSaiEC0-42" value="Scientist in Charge of tree nurseries, Forester, Nursery supervisor/attendants initiates seedling production through sowing, pricking out of germinants and nurturing seedlings" style="whiteSpace=wrap;html=1;rounded=0;" parent="VUJQqh5qZJxquNSaiEC0-1" vertex="1">
          <mxGeometry x="559.75" y="689" width="260" height="81" as="geometry" />
        </mxCell>
        <mxCell id="VUJQqh5qZJxquNSaiEC0-43" value="" style="edgeStyle=orthogonalEdgeStyle;rounded=0;orthogonalLoop=1;jettySize=auto;html=1;" parent="VUJQqh5qZJxquNSaiEC0-1" source="VUJQqh5qZJxquNSaiEC0-40" target="VUJQqh5qZJxquNSaiEC0-42" edge="1">
          <mxGeometry relative="1" as="geometry" />
        </mxCell>
        <mxCell id="VUJQqh5qZJxquNSaiEC0-44" value="Scientist in Charge of tree nurseries, Forester, Enterprise Office initiates selling of seedlings through Enterprise Manager Office" style="whiteSpace=wrap;html=1;rounded=0;" parent="VUJQqh5qZJxquNSaiEC0-1" vertex="1">
          <mxGeometry x="901" y="681.75" width="160" height="95.5" as="geometry" />
        </mxCell>
        <mxCell id="VUJQqh5qZJxquNSaiEC0-45" value="" style="edgeStyle=orthogonalEdgeStyle;rounded=0;orthogonalLoop=1;jettySize=auto;html=1;" parent="VUJQqh5qZJxquNSaiEC0-1" source="VUJQqh5qZJxquNSaiEC0-42" target="VUJQqh5qZJxquNSaiEC0-44" edge="1">
          <mxGeometry relative="1" as="geometry" />
        </mxCell>
        <mxCell id="VUJQqh5qZJxquNSaiEC0-48" value="Director, SDDR&amp;amp;D, RD, DRD, Scientist in Charge of tree nurseries, Forester initiate issuance of seedlings for estate establishment, research and CSR activities" style="whiteSpace=wrap;html=1;rounded=0;" parent="VUJQqh5qZJxquNSaiEC0-1" vertex="1">
          <mxGeometry x="891" y="521" width="180" height="95.5" as="geometry" />
        </mxCell>
        <mxCell id="VUJQqh5qZJxquNSaiEC0-49" value="" style="edgeStyle=orthogonalEdgeStyle;rounded=0;orthogonalLoop=1;jettySize=auto;html=1;" parent="VUJQqh5qZJxquNSaiEC0-1" source="VUJQqh5qZJxquNSaiEC0-44" target="VUJQqh5qZJxquNSaiEC0-48" edge="1">
          <mxGeometry relative="1" as="geometry" />
        </mxCell>
        <mxCell id="VUJQqh5qZJxquNSaiEC0-52" value="End" style="rounded=1;whiteSpace=wrap;html=1;" parent="VUJQqh5qZJxquNSaiEC0-1" vertex="1">
          <mxGeometry x="935.5" y="40" width="91" height="48" as="geometry" />
        </mxCell>
        <mxCell id="haQr1E7QjzLYRrLq0wVw-2" value="Endorsed?" style="rhombus;whiteSpace=wrap;html=1;" vertex="1" parent="VUJQqh5qZJxquNSaiEC0-1">
          <mxGeometry x="70" y="550" width="80" height="80" as="geometry" />
        </mxCell>
        <mxCell id="VUJQqh5qZJxquNSaiEC0-11" value="" style="edgeStyle=orthogonalEdgeStyle;rounded=0;orthogonalLoop=1;jettySize=auto;html=1;" parent="VUJQqh5qZJxquNSaiEC0-1" source="VUJQqh5qZJxquNSaiEC0-8" target="haQr1E7QjzLYRrLq0wVw-2" edge="1">
          <mxGeometry relative="1" as="geometry">
            <mxPoint x="110" y="530" as="targetPoint" />
          </mxGeometry>
        </mxCell>
        <mxCell id="haQr1E7QjzLYRrLq0wVw-3" value="Comments" style="shape=note;whiteSpace=wrap;html=1;backgroundOutline=1;darkOpacity=0.05;" vertex="1" parent="VUJQqh5qZJxquNSaiEC0-1">
          <mxGeometry x="190" y="550" width="70" height="80" as="geometry" />
        </mxCell>
        <mxCell id="haQr1E7QjzLYRrLq0wVw-4" value="" style="edgeStyle=orthogonalEdgeStyle;rounded=0;orthogonalLoop=1;jettySize=auto;html=1;" edge="1" parent="VUJQqh5qZJxquNSaiEC0-1" source="haQr1E7QjzLYRrLq0wVw-2" target="haQr1E7QjzLYRrLq0wVw-3">
          <mxGeometry relative="1" as="geometry" />
        </mxCell>
        <mxCell id="haQr1E7QjzLYRrLq0wVw-6" value="" style="edgeStyle=orthogonalEdgeStyle;rounded=0;orthogonalLoop=1;jettySize=auto;html=1;entryX=1;entryY=0.5;entryDx=0;entryDy=0;" edge="1" parent="VUJQqh5qZJxquNSaiEC0-1" source="haQr1E7QjzLYRrLq0wVw-3" target="VUJQqh5qZJxquNSaiEC0-8">
          <mxGeometry relative="1" as="geometry">
            <mxPoint x="225" y="440" as="targetPoint" />
          </mxGeometry>
        </mxCell>
        <mxCell id="haQr1E7QjzLYRrLq0wVw-7" value="no" style="text;html=1;strokeColor=none;fillColor=none;align=center;verticalAlign=middle;whiteSpace=wrap;rounded=0;" vertex="1" parent="VUJQqh5qZJxquNSaiEC0-1">
          <mxGeometry x="145" y="570" width="40" height="20" as="geometry" />
        </mxCell>
        <mxCell id="haQr1E7QjzLYRrLq0wVw-8" value="yes" style="text;html=1;strokeColor=none;fillColor=none;align=center;verticalAlign=middle;whiteSpace=wrap;rounded=0;" vertex="1" parent="VUJQqh5qZJxquNSaiEC0-1">
          <mxGeometry x="105" y="643" width="40" height="20" as="geometry" />
        </mxCell>
        <mxCell id="haQr1E7QjzLYRrLq0wVw-9" value="Approved?" style="rhombus;whiteSpace=wrap;html=1;rounded=0;" vertex="1" parent="VUJQqh5qZJxquNSaiEC0-1">
          <mxGeometry x="270" y="690" width="80" height="80" as="geometry" />
        </mxCell>
        <mxCell id="haQr1E7QjzLYRrLq0wVw-10" value="" style="edgeStyle=orthogonalEdgeStyle;rounded=0;orthogonalLoop=1;jettySize=auto;html=1;" edge="1" parent="VUJQqh5qZJxquNSaiEC0-1" source="VUJQqh5qZJxquNSaiEC0-12" target="haQr1E7QjzLYRrLq0wVw-9">
          <mxGeometry relative="1" as="geometry" />
        </mxCell>
        <mxCell id="haQr1E7QjzLYRrLq0wVw-12" value="" style="edgeStyle=orthogonalEdgeStyle;rounded=0;orthogonalLoop=1;jettySize=auto;html=1;entryX=0.5;entryY=1;entryDx=0;entryDy=0;" edge="1" parent="VUJQqh5qZJxquNSaiEC0-1" source="haQr1E7QjzLYRrLq0wVw-9" target="VUJQqh5qZJxquNSaiEC0-26">
          <mxGeometry relative="1" as="geometry">
            <mxPoint x="400" y="643" as="targetPoint" />
            <Array as="points">
              <mxPoint x="400" y="730" />
            </Array>
          </mxGeometry>
        </mxCell>
        <mxCell id="haQr1E7QjzLYRrLq0wVw-14" value="" style="edgeStyle=orthogonalEdgeStyle;rounded=0;orthogonalLoop=1;jettySize=auto;html=1;entryX=0.5;entryY=1;entryDx=0;entryDy=0;" edge="1" parent="VUJQqh5qZJxquNSaiEC0-1" source="VUJQqh5qZJxquNSaiEC0-20" target="VUJQqh5qZJxquNSaiEC0-22">
          <mxGeometry relative="1" as="geometry">
            <mxPoint x="400" y="327.5" as="targetPoint" />
          </mxGeometry>
        </mxCell>
        <mxCell id="haQr1E7QjzLYRrLq0wVw-17" value="Approved?" style="rhombus;whiteSpace=wrap;html=1;rounded=0;" vertex="1" parent="VUJQqh5qZJxquNSaiEC0-1">
          <mxGeometry x="649.75" y="267.75" width="80" height="80" as="geometry" />
        </mxCell>
        <mxCell id="haQr1E7QjzLYRrLq0wVw-19" value="yes" style="text;html=1;strokeColor=none;fillColor=none;align=center;verticalAlign=middle;whiteSpace=wrap;rounded=0;" vertex="1" parent="VUJQqh5qZJxquNSaiEC0-1">
          <mxGeometry x="350" y="710" width="40" height="20" as="geometry" />
        </mxCell>
        <mxCell id="haQr1E7QjzLYRrLq0wVw-21" value="" style="edgeStyle=orthogonalEdgeStyle;rounded=0;orthogonalLoop=1;jettySize=auto;html=1;entryX=0.5;entryY=1;entryDx=0;entryDy=0;" edge="1" parent="VUJQqh5qZJxquNSaiEC0-1" source="haQr1E7QjzLYRrLq0wVw-9" target="VUJQqh5qZJxquNSaiEC0-12">
          <mxGeometry relative="1" as="geometry">
            <mxPoint x="430" y="755" as="targetPoint" />
            <Array as="points">
              <mxPoint x="310" y="800" />
              <mxPoint x="110" y="800" />
            </Array>
          </mxGeometry>
        </mxCell>
        <mxCell id="haQr1E7QjzLYRrLq0wVw-22" value="no - Rejection feedback" style="text;html=1;strokeColor=none;fillColor=none;align=center;verticalAlign=middle;whiteSpace=wrap;rounded=0;" vertex="1" parent="VUJQqh5qZJxquNSaiEC0-1">
          <mxGeometry x="145" y="777.25" width="135" height="20" as="geometry" />
        </mxCell>
        <mxCell id="haQr1E7QjzLYRrLq0wVw-25" value="yes" style="text;html=1;strokeColor=none;fillColor=none;align=center;verticalAlign=middle;whiteSpace=wrap;rounded=0;" vertex="1" parent="VUJQqh5qZJxquNSaiEC0-1">
          <mxGeometry x="689.75" y="370" width="40" height="20" as="geometry" />
        </mxCell>
        <mxCell id="haQr1E7QjzLYRrLq0wVw-15" value="Scientist in Charge of tree nurseries, Forester, Seedling Production Officers raises seed request to seed manager through RD for approval" style="whiteSpace=wrap;html=1;rounded=0;" vertex="1" parent="VUJQqh5qZJxquNSaiEC0-1">
          <mxGeometry x="601" y="110" width="177.5" height="94" as="geometry" />
        </mxCell>
        <mxCell id="haQr1E7QjzLYRrLq0wVw-16" value="" style="edgeStyle=orthogonalEdgeStyle;rounded=0;orthogonalLoop=1;jettySize=auto;html=1;" edge="1" parent="VUJQqh5qZJxquNSaiEC0-1" source="VUJQqh5qZJxquNSaiEC0-24" target="haQr1E7QjzLYRrLq0wVw-15">
          <mxGeometry relative="1" as="geometry" />
        </mxCell>
        <mxCell id="haQr1E7QjzLYRrLq0wVw-18" value="" style="edgeStyle=orthogonalEdgeStyle;rounded=0;orthogonalLoop=1;jettySize=auto;html=1;" edge="1" parent="VUJQqh5qZJxquNSaiEC0-1" source="haQr1E7QjzLYRrLq0wVw-15" target="haQr1E7QjzLYRrLq0wVw-17">
          <mxGeometry relative="1" as="geometry" />
        </mxCell>
        <mxCell id="haQr1E7QjzLYRrLq0wVw-26" value="Comments" style="shape=note;whiteSpace=wrap;html=1;backgroundOutline=1;darkOpacity=0.05;rounded=0;" vertex="1" parent="VUJQqh5qZJxquNSaiEC0-1">
          <mxGeometry x="761" y="257" width="80" height="100" as="geometry" />
        </mxCell>
        <mxCell id="haQr1E7QjzLYRrLq0wVw-27" value="" style="edgeStyle=orthogonalEdgeStyle;rounded=0;orthogonalLoop=1;jettySize=auto;html=1;" edge="1" parent="VUJQqh5qZJxquNSaiEC0-1" source="haQr1E7QjzLYRrLq0wVw-17" target="haQr1E7QjzLYRrLq0wVw-26">
          <mxGeometry relative="1" as="geometry" />
        </mxCell>
        <mxCell id="haQr1E7QjzLYRrLq0wVw-29" value="" style="edgeStyle=orthogonalEdgeStyle;rounded=0;orthogonalLoop=1;jettySize=auto;html=1;entryX=1;entryY=0.5;entryDx=0;entryDy=0;" edge="1" parent="VUJQqh5qZJxquNSaiEC0-1" source="haQr1E7QjzLYRrLq0wVw-26" target="haQr1E7QjzLYRrLq0wVw-15">
          <mxGeometry relative="1" as="geometry">
            <mxPoint x="801" y="157" as="targetPoint" />
          </mxGeometry>
        </mxCell>
        <mxCell id="haQr1E7QjzLYRrLq0wVw-31" value="RD, Scientist in Charge of tree nurseries Foresters annually undertakes inventory on seedling production targets and needs by mid-September" style="whiteSpace=wrap;html=1;rounded=0;" vertex="1" parent="VUJQqh5qZJxquNSaiEC0-1">
          <mxGeometry x="881" y="400" width="200" height="80" as="geometry" />
        </mxCell>
        <mxCell id="haQr1E7QjzLYRrLq0wVw-32" value="" style="edgeStyle=orthogonalEdgeStyle;rounded=0;orthogonalLoop=1;jettySize=auto;html=1;" edge="1" parent="VUJQqh5qZJxquNSaiEC0-1" source="VUJQqh5qZJxquNSaiEC0-48" target="haQr1E7QjzLYRrLq0wVw-31">
          <mxGeometry relative="1" as="geometry" />
        </mxCell>
        <mxCell id="haQr1E7QjzLYRrLq0wVw-33" value="Scientist in Charge of tree nurseries submission for review the inventory report to SDDRD through Regional Director by end of Septembe" style="whiteSpace=wrap;html=1;rounded=0;" vertex="1" parent="VUJQqh5qZJxquNSaiEC0-1">
          <mxGeometry x="881" y="290" width="200" height="67" as="geometry" />
        </mxCell>
        <mxCell id="haQr1E7QjzLYRrLq0wVw-34" value="" style="edgeStyle=orthogonalEdgeStyle;rounded=0;orthogonalLoop=1;jettySize=auto;html=1;" edge="1" parent="VUJQqh5qZJxquNSaiEC0-1" source="haQr1E7QjzLYRrLq0wVw-31" target="haQr1E7QjzLYRrLq0wVw-33">
          <mxGeometry relative="1" as="geometry" />
        </mxCell>
        <mxCell id="haQr1E7QjzLYRrLq0wVw-35" value="Scientist in Charge of tree nurseries provides feedback to RD/SDDRD and make any amendments by mid-October " style="whiteSpace=wrap;html=1;rounded=0;" vertex="1" parent="VUJQqh5qZJxquNSaiEC0-1">
          <mxGeometry x="871" y="140" width="220" height="90" as="geometry" />
        </mxCell>
        <mxCell id="haQr1E7QjzLYRrLq0wVw-36" value="" style="edgeStyle=orthogonalEdgeStyle;rounded=0;orthogonalLoop=1;jettySize=auto;html=1;" edge="1" parent="VUJQqh5qZJxquNSaiEC0-1" source="haQr1E7QjzLYRrLq0wVw-33" target="haQr1E7QjzLYRrLq0wVw-35">
          <mxGeometry relative="1" as="geometry" />
        </mxCell>
        <mxCell id="haQr1E7QjzLYRrLq0wVw-40" value="" style="edgeStyle=orthogonalEdgeStyle;rounded=0;orthogonalLoop=1;jettySize=auto;html=1;" edge="1" parent="VUJQqh5qZJxquNSaiEC0-1" source="haQr1E7QjzLYRrLq0wVw-35" target="VUJQqh5qZJxquNSaiEC0-52">
          <mxGeometry relative="1" as="geometry">
            <mxPoint x="981" y="50" as="targetPoint" />
          </mxGeometry>
        </mxCell>
        <mxCell id="haQr1E7QjzLYRrLq0wVw-30" value="no" style="text;html=1;strokeColor=none;fillColor=none;align=center;verticalAlign=middle;whiteSpace=wrap;rounded=0;" vertex="1" parent="1">
          <mxGeometry x="742" y="276" width="40" height="20" as="geometry" />
        </mxCell>
      </root>
    </mxGraphModel>
  </diagram>
</mxfile>
